<?xml version="1.0" encoding="UTF-8" standalone="no"?>
<!DOCTYPE svg PUBLIC "-//W3C//DTD SVG 1.1//EN" "http://www.w3.org/Graphics/SVG/1.1/DTD/svg11.dtd">
<!--Generated by Intaglio, www.PurgatoryDesign.com-->
<svg version="1.1" viewBox="0,0,576,734" width="576" height="734" xmlns="http://www.w3.org/2000/svg" xmlns:xlink="http://www.w3.org/1999/xlink" xmlns:intaglio="http://purgatorydesign.com/namespaces/intaglio" intaglio:grid="36,36,1,1,0.5,#9999bf,0,0,0,0" intaglio:guides="0.8,#f0f,1,1"><path fill="none" stroke="#000100" stroke-linecap="round" d="M291.215,234.763 C287.778,241.587,286.507,244.558,286.978,251.767 C287.412,258.412,290.902,270.98,293.175,277.324 C297.058,288.166,295.1,284.122,296.112,295.728 C296.667,302.091,301.062,317.257,299.858,325.131 C299.222,329.291,293.937,328.149,292.436,329.73 C288.515,333.86,294.624,338.143,299.744,338.396 C300.619,338.439,300.755,332.644,303.162,331.848 C304.571,331.383,304.941,338.517,306.335,337.938 C310.08,336.381,316.184,332.216,314.516,331.545 C311.785,330.447,307.652,328.786,305.929,325.633 C300.592,315.873,301.394,298.036,300.28,289.016 C299.487,282.602,308.813,279.744,308.885,274.496 C309.088,259.516,312.79,261.671,314.043,247.157 C314.311,244.05,313.455,237.66,310.875,234.371 C308.488,231.329,304.383,231.389,304.079,228.5 C303.248,220.599,311.606,229.025,311.066,220.652 C310.491,211.766,305.82,212.334,307.695,185.319 C307.975,181.285,304.467,155.791,299.506,160.508 C297.919,162.016,300.49,147.31,299.065,145.509 C297.71,143.798,298.507,156.42,296.259,159.493 C294.465,161.946,293.691,160.506,292.675,162.827 C290.46,167.888,293.247,191.047,293.483,194.671 C294.902,216.425,290.955,210.295,293.128,219.067 C294.092,222.955,299.275,223.685,299.958,226.327 C300.308,227.681,300.558,230.243,298.678,231.258 Z"/></svg>
