<?xml version="1.0" encoding="UTF-8" standalone="no"?>
<!DOCTYPE svg PUBLIC "-//W3C//DTD SVG 1.1//EN" "http://www.w3.org/Graphics/SVG/1.1/DTD/svg11.dtd">
<!--Generated by Intaglio, www.PurgatoryDesign.com-->
<svg version="1.1" viewBox="0,0,734,576" width="734" height="576" xmlns="http://www.w3.org/2000/svg" xmlns:xlink="http://www.w3.org/1999/xlink" xmlns:intaglio="http://purgatorydesign.com/namespaces/intaglio" intaglio:grid="36,36,1,1,0.5,#9999bf,1,0,0,0" intaglio:guides="0.8,#f0f,1,1"><image xlink:href="1.gif" width="750" height="446" transform="matrix(0.928,0,0,0.928,8,66)"/><g><path fill="#fffffe" stroke="#000100" d="M417.5,380.391 L704,380.391 L704,479.888 L417.5,479.888 L417.5,380.391 Z"/><g><text fill="#000100" font-family="Avenir" font-size="14" transform="matrix(1,0,0,1,453.939,406.674)" xml:space="preserve"><tspan>Places where I identify as an immigrant</tspan></text><path fill="#d4121a" stroke="#000100" d="M430,392.967 L450.022,392.967 L450.022,412.989 L430,412.989 L430,392.967 Z"/></g><g><text fill="#000100" font-family="Avenir" font-size="14" transform="matrix(1,0,0,1,453.939,435.923)" xml:space="preserve"><tspan>Places where I identify as an tourist</tspan></text><path fill="#fffffe" stroke="#000100" d="M430,422.216 L450.022,422.216 L450.022,442.238 L430,442.238 L430,422.216 Z"/></g><g><text fill="#000100" font-family="Avenir" font-size="14" transform="matrix(1,0,0,1,458.909,465.172)" xml:space="preserve"><tspan>Places where I identify as neither</tspan></text><path fill="#0b65fe" stroke="#000100" d="M430,451.465 L450.022,451.465 L450.022,471.487 L430,471.487 L430,451.465 Z"/></g></g><image xlink:href="3.tiff" width="28" height="24" transform="matrix(1,0,0,1,347.68,188.589)"/></svg>
